<svg width="18" height="20" viewBox="0 0 18 20" fill="none" xmlns="http://www.w3.org/2000/svg">
<path fill-rule="evenodd" clip-rule="evenodd" d="M4.38461 5.38492C4.38461 2.8003 6.41538 0.769531 9 0.769531C11.5846 0.769531 13.6154 2.8003 13.6154 5.38492C13.6154 7.96953 11.5846 10.0003 9 10.0003C6.41538 10.0003 4.38461 7.96953 4.38461 5.38492ZM17.3077 16.4618V18.308C17.3077 18.8618 16.9385 19.2311 16.3846 19.2311C15.8308 19.2311 15.4615 18.8618 15.4615 18.308V16.4618C15.4615 14.8926 14.2615 13.6926 12.6923 13.6926H5.30769C3.73846 13.6926 2.53846 14.8926 2.53846 16.4618V18.308C2.53846 18.8618 2.16923 19.2311 1.61538 19.2311C1.06154 19.2311 0.692307 18.8618 0.692307 18.308V16.4618C0.692307 13.8772 2.72308 11.8465 5.30769 11.8465H12.6923C15.2769 11.8465 17.3077 13.8772 17.3077 16.4618ZM9 8.15415C7.43077 8.15415 6.23077 6.95415 6.23077 5.38492C6.23077 3.81569 7.43077 2.61569 9 2.61569C10.5692 2.61569 11.7692 3.81569 11.7692 5.38492C11.7692 6.95415 10.5692 8.15415 9 8.15415Z" fill="white"/>
</svg>
